<?xml version="1.0" encoding="utf-8"?>
<!-- Generator: Adobe Illustrator 18.1.1, SVG Export Plug-In . SVG Version: 6.00 Build 0)  -->
<svg version="1.1" id="Layer_1" xmlns="http://www.w3.org/2000/svg" xmlns:xlink="http://www.w3.org/1999/xlink" x="0px" y="0px"
	 viewBox="0 0 606.5 131.6" enable-background="new 0 0 606.5 131.6" xml:space="preserve">
<g>
	<path fill="#D65627" d="M382.7,114.5c0,0,0,0.1,0,0.1c0-0.1,0-0.2,0-0.2C382.7,114.4,382.7,114.4,382.7,114.5z"/>
	<path fill="#D65627" d="M451.1,114.5c0,0,0,0.1,0,0.1c0-0.1,0-0.2,0-0.2C451.1,114.4,451.1,114.4,451.1,114.5z"/>
	<path fill="#D65627" d="M600.9,52c-2.5,6.6-6.2,12.9-10.8,18.2c-4.5,5.2-10.7,9.8-17.8,9.8c-3.2,0-6.3-0.9-8.7-3.1
		c-2.4-2.2-3.7-5.5-4.1-8.7c1.7-0.2,3.4-0.5,5.1-0.8c6.2-1.4,12.3-4.8,16-10.1c1.8-2.7,3-6.1,2.7-9.4c-0.3-3.3-2-6.3-4.5-8.5
		c-5.3-4.6-13-3.9-19.2-1.7c-6.5,2.3-11.7,6.8-15.3,12.7c-0.2,0.3-0.4,0.7-0.6,1c-0.1,0.2-0.2,0.3-0.3,0.5c-0.8,1.6-1.6,3.2-2.2,5
		c-1.1,2.4-2.4,4.8-3.7,7.1c-2,3.5-4.1,7-6.7,10.1c-2.1,2.5-5.3,5.9-8.9,3.9c-3.1-1.8-4.1-6.3-4.7-9.6c-0.6-3.7-0.7-7.6-0.7-11.4
		c4.1-3.2,7.2-7.5,9.7-12c4.5-8,7.6-17,7.2-26.3C533,11.1,531.1,0,521.3,0c-4.6,0-8.8,1.8-12.1,5c-5.9,5.7-8.5,14.4-10.1,22.2
		c-1.7,8.2-2.3,16.7-2.4,25.1C493,61.9,486.6,70,479.2,77c0.5-4.8,0.9-9.6,1.4-14.3c0.4-4.1,0.7-8.1,0.9-12.2
		c0.2-3.4,0.8-7.2-1.3-10.2c-2.2-3.1-6.4-4.1-10-3.2c-3.9,1-6.1,4.3-7.3,7.9c-2.1-4.9-6.4-8.9-12-8.9c-8.3,0-15.4,4.9-19.9,11.6
		c-2,3-3.6,6.3-4.8,9.7c-3.8,7.4-9.2,14-15.3,19.7c0.5-4.8,0.9-9.6,1.4-14.3c0.4-4.1,0.7-8.1,0.9-12.2c0.2-3.4,0.8-7.2-1.3-10.2
		c-2.2-3.1-6.4-4.1-10-3.2c-3.9,1-6.1,4.3-7.3,7.9c-2.1-4.9-6.4-8.9-12-8.9c-8.3,0-15.4,4.9-19.9,11.6c-0.9,1.2-1.6,2.5-2.3,3.9
		c0,0,0,0.1-0.1,0.1c-0.8,1.6-1.5,3.2-2.2,4.9c-1.5,3.2-3.1,6.3-4.9,9.3c-1.3,2.2-2.7,4.4-4.2,6.5c-1.5,2-3.1,4-5.2,5.4
		c-1.5,1-3.5,1.4-4.8-0.1c-1.3-1.5-1.4-3.9-1.5-5.8c-0.1-2.3,0.2-4.6,0.4-6.9c0.2-2.1,0.1-4.3,0-6.4c-0.4-6.6-1.4-15.1-6.7-19.8
		c-2.6-2.3-6.1-3.1-9.5-3.1c-4.3,0.1-8.6,1.1-12.2,3.6c-7.6,5.3-10.7,15-12.8,23.5c-0.3-3.8-0.3-7.6-0.8-11.3s-2.4-6.9-6.4-7.3
		c-3.4-0.3-6.3,1-8.4,3.6c-1.6,2-2.4,4.3-2.8,6.7c-2,4.5-4.4,8.9-6.9,13.1c-1.4,2.2-2.8,4.4-4.5,6.4c-1.4,1.7-3.2,3.8-5.4,4.5
		c-5.5,1.7-4.6-7.2-4.6-10.2c0-2.2,0.1-4.4,0.2-6.7c0.1-2.3,0.3-4.8-0.9-6.9c-2.5-4.4-8.2-6.1-12.9-6.4c-0.5-8.1-5.9-12.2-16.3-12.2
		c-8.4,0-15.5,5-20.1,11.7c-1.9,2.8-3.3,5.8-4.5,8.9c-1.9,4.1-4.1,8.1-6.6,12c-1.4,2.3-3,4.5-4.8,6.5c-1.5,1.6-3.6,3.8-6,3.5
		c-2.6-0.4-2.8-3.4-2.9-5.5c-0.1-2.8,0-5.6,0-8.4c0-2.7,0.1-5.5,0.1-8.2c0-2.1,0.4-4.8-0.2-6.8c-0.8-2.4-3.2-3.9-5.3-4.8
		c-2.4-1.1-4.9-1.7-7.5-2.2c-2.4-0.6-4.8-1.2-7.1-2c-1.9-0.7-4.7-1.6-5.5-3.8c-0.5-1.6-0.1-3.7-0.1-5.4c0-2.1,0-4.4-1.1-6.3
		c-1.9-3.6-7.5-4.6-10.8-2.5c-3.7,2.3-5.6,7-6,11.2c0,0.1,0,0.3,0,0.4c0-2.2,0-4.4-0.2-6.6c-0.5-5.8-1.7-12-4.6-17.1
		c-1.2-2.1-2.8-4.1-4.8-5.5c-1.5-1-5.5-2.6-6.7-0.6c-0.6,1-0.5,2.6-0.3,3.7c0.2,1.2,0.7,2.4,1.2,3.6c1.1,2.6,2.1,5.2,2.8,7.9
		c2.8,11,1.3,22.8-2.1,33.5c-1.8,5.6-4.2,11.2-7.5,16c-2.9,4.3-7.2,9.1-12.7,9.8c-12.8,1.6-13.9-16-14.1-24.8
		c-0.1-6.1,0.3-12.2,0.6-18.3c0.3-5.1,0.4-10.2-1.3-15.1c-1.8-5.2-5.8-9-11.5-8.7c-5.3,0.3-8.7,5.2-9,10.3c-0.1,1.5-0.2,3-0.2,4.6
		c-0.2,6.2-0.1,12.4-1,18.6c-0.9,6.3-2.6,12.5-5.3,18.2c-2.4,5.2-5.7,10.4-10.6,13.4c-4.8,2.9-11.1,2.5-14.6-2.2
		c-3.4-4.6-4.1-11.1-4.5-16.7c-0.4-6.4-0.1-12.9,0.3-19.3c0.3-5.9,0.6-11.8-0.2-17.7c-0.8-5.3-2.5-10.9-6.4-14.8
		c-4-4-9.4-5.5-14.9-5.5C8.3,1,5.4,1.3,3.2,2.8C0.8,4.5,0,7.2,0,10c0,3.1,3.4,4.4,5.7,5.6c2.7,1.5,4.8,3.5,5.1,6.7
		c1,9.9-0.7,19.8-0.6,29.7c0.1,15,2.3,36.8,19.5,41.9c8,2.3,16.9,0.8,24-3.4c7.1-4.3,12.3-11.1,16-18.4c0.7,2.7,1.5,5.3,2.6,7.8
		c2.1,4.9,5.4,9.3,10.2,12c4.8,2.7,10.4,3.4,15.9,2.9c11.2-1.1,20.6-8.2,26.9-17.1c6.7-9.4,10.6-20.7,12.3-32.1
		c0.5-3.3,0.8-6.6,0.9-9.9c0.1,3.8,1.6,7.3,4.7,9.8c1.3,1,0.8,3.9,0.6,5.3c-0.4,2-1.3,3.9-2.2,5.7c-0.3,0.5-0.6,1.2-0.6,1.8
		c0,1.8,1.5,3,3.2,2.4c1.6-0.5,2.4-2.4,3.1-3.8c1.6-3.5,2.1-7.5,4-10.9c3,0.4,6.9,0.9,9,3.4c2.1,2.5,2,6.4,2,9.5v7.5
		c0,3.5,0.1,6.9,0.3,10.4c0.2,3.2,0.5,6.4,1.5,9.4c0.8,2.5,2.1,4.8,4.2,6.4c2.1,1.6,4.8,2.1,7.4,2.3c6.5,0.4,11.8-3.2,16-7.8
		c3-3.2,5.4-6.9,7.6-10.7c0.3,4.7,1.6,9.2,5,13c5,5.6,13.2,6.8,20.2,4.5c6.5-2.2,10.8-7.7,13.2-13.9c0.6,5.1,1.9,11.3,7,13.7
		c4.4,2.1,10.2,1.8,14.4-0.5c4.6-2.5,8.2-6.5,11.2-10.6c2.9-4,5.3-8.3,7.5-12.8c0,2.6-0.1,5.2-0.1,7.8c-0.1,3-0.1,6-0.2,9.1
		c-0.1,2.5-0.9,5.9,1.4,7.7c2.5,2,6.8,1.4,9.7,0.7c3.3-0.8,5.9-2.6,7.3-5.8l0.2-0.4c1.5-3.6,2.4-7.4,3.6-11.1
		c2.2-7.1,4.4-14.6,8.3-21c1.3-2.2,4.5-6.5,7.5-4.1c2.5,2.1,2.6,6.5,2.6,9.4v4.5c0,3.5,0.1,6.9,0.3,10.4c0.2,3.2,0.5,6.4,1.5,9.4
		c0.8,2.5,2.1,4.8,4.2,6.4c2.1,1.6,4.8,2.1,7.4,2.3c6.5,0.4,11.8-3.2,16-7.8c3-3.2,5.4-6.9,7.6-10.7c0.3,4.5,1.6,8.9,4.7,12.6
		c4.8,5.6,12.7,7.2,19.6,5.1c6.5-1.9,10.7-7.3,13.2-13.4c-0.2,3.6-0.3,7.2-0.6,10.7c-6.7,4.7-13.9,9.9-18.2,17
		c-3.6,6.1-4.1,13.7,1.2,19c5,5,12.9,5.6,19,2.4c6.4-3.4,9.8-9.7,11.9-16.4c2.2-7.2,2.8-14.7,3.5-22.1c5.3-4.7,10-10,14-16
		c0.2,4.9,1.4,9.7,4.7,13.6c4.8,5.6,12.7,7.2,19.6,5.1c6.5-1.9,10.7-7.3,13.2-13.4c-0.2,3.6-0.3,7.2-0.6,10.7
		c-6.7,4.7-13.9,9.9-18.2,17c-3.6,6.1-4.1,13.7,1.2,19c5,5,12.9,5.6,19,2.4c6.4-3.4,9.8-9.7,11.9-16.4c2.2-7.2,2.8-14.7,3.5-22.1
		c5.8-5.1,10.9-11,15-17.5c1.5-2.3,2.8-4.8,4-7.2c0.1,6,0.8,12.1,3.2,17.6c2.1,4.7,5.6,8.6,10.7,10.1c2.8,0.8,6,1,8.9,0.3
		c3.3-0.8,6.1-2.8,8.6-4.9c4.7-4.2,8.2-9.6,11.2-15.1c0.9,5.6,3.4,10.7,7.9,14.5c4.9,4.1,11.3,5.7,17.6,6c3.5,0.1,6.9-0.2,10.2-1.3
		c3.2-1.1,6.2-2.9,8.8-4.9c5.6-4.3,9.9-10.1,13.5-16.1c3.7-6.1,6.6-12.7,8.8-19.4C607.7,49.4,601.9,49.2,600.9,52z M518,29.8
		c0.4-3.1,0.9-6.2,1.6-9.3c0.3-1.4,0.6-2.7,1.1-4c0.3-0.7,0.7-2.6,1.8-2.6c3.1,0,3,5.2,3,7.3c0,3.2-0.3,6.5-0.9,9.7
		c-1.1,6.1-3.2,13.2-7.9,17.6C516.6,42.3,517.2,36,518,29.8z M237.3,63.1c-0.1,0.3-0.1,0.5-0.1,0.6c-0.8,4.9-2.8,9.7-6,13.5
		c-2.1,2.5-7.3,6.8-10.4,3.6c-1.5-1.5-1.9-3.9-1.9-6c-0.1-2.4,0.2-4.8,0.6-7.1c0.8-4.4,2.5-8.7,5.6-12c3-3.2,6.8-4.8,11.1-4.8
		c0.9,0,1.6,0.2,2.4,0.6c0.7,0.4,1.3,1.2,2.1,1.4C239,56,237.9,59.5,237.3,63.1z M388.2,115c-0.5,1.4-1.1,2.7-2.8,2.4
		c-1.5-0.3-2.6-1.4-2.7-2.9c0,0.2,0,0.3,0-0.1c0-0.3,0-0.3,0-0.1c0.1-2,1.5-3.9,2.8-5.4c1.4-1.7,3.1-3.3,4.9-4.7
		C390,107.8,389.5,111.6,388.2,115z M392.9,58.7v2.7c0,5.2-1.6,10.3-4.7,14.5c-1.4,1.8-3,3.4-4.9,4.5c-1.7,1-4.1,2-6,1
		c-1.8-1.1-2.5-3.6-2.7-5.5c-0.2-2.5,0-5,0.4-7.5c0.8-4.5,2.4-9.1,5.5-12.5c3-3.3,6.9-5.1,11.3-5.1h1.4
		C392.9,53.4,392.9,56,392.9,58.7z M456.6,115c-0.5,1.4-1.1,2.7-2.8,2.4c-1.5-0.3-2.6-1.4-2.7-2.9c0,0.2,0,0.3,0-0.1
		c0-0.3,0-0.3,0-0.1c0.1-2,1.5-3.9,2.8-5.4c1.4-1.7,3.1-3.3,4.9-4.7C458.3,107.8,457.9,111.6,456.6,115z M461.2,58.7v2.7
		c0,5.2-1.6,10.3-4.7,14.5c-1.4,1.8-3,3.4-4.9,4.5c-1.7,1-4.1,2-6,1c-1.8-1.1-2.5-3.6-2.7-5.5c-0.2-2.5,0-5,0.4-7.5
		c0.8-4.5,2.4-9.1,5.5-12.5c3-3.3,6.9-5.1,11.3-5.1h1.4C461.3,53.4,461.2,56,461.2,58.7z M564,49c1.6-1.6,3.7-2.5,6-2.2
		c2.1,0.3,3.2,1.9,3.2,3.9c0,7.1-7.7,11.4-14,11.9C559.5,58,560.6,52.5,564,49z"/>
</g>
</svg>
