<?xml version="1.0" encoding="utf-8"?>
<!-- Generator: Adobe Illustrator 17.0.1, SVG Export Plug-In . SVG Version: 6.00 Build 0)  -->
<!DOCTYPE svg PUBLIC "-//W3C//DTD SVG 1.1//EN" "http://www.w3.org/Graphics/SVG/1.1/DTD/svg11.dtd">
<svg version="1.1" id="Layer_1" xmlns="http://www.w3.org/2000/svg" xmlns:xlink="http://www.w3.org/1999/xlink" x="0px" y="0px"
	 width="539px" height="161px" viewBox="0 0 539 161" enable-background="new 0 0 539 161" xml:space="preserve">
<g>
	<g>
		<path fill="#FFFFFF" d="M84.211,4.579C42.854,4.579,9.21,38.225,9.21,79.58c0,41.354,33.645,74.999,75.002,74.999
			c41.354,0,74.998-33.646,74.998-74.999C159.209,38.225,125.565,4.579,84.211,4.579"/>
		<path fill="#51A601" d="M16.606,79.581c0-37.337,30.268-67.605,67.605-67.605c37.336,0,67.602,30.268,67.602,67.605
			c0,37.333-30.266,67.603-67.602,67.603C46.875,147.184,16.606,116.914,16.606,79.581"/>
		<path fill="#FFFFFF" d="M148.589,104.206c0.355-0.957,0.692-1.925,1.008-2.901H92.926l2.771-3.545h39.256
			c0.817,0,1.479-0.64,1.479-1.427c0-0.786-0.662-1.424-1.479-1.424H97.927l2.72-3.476h19.97c0.669,0,1.216-0.65,1.216-1.453
			c0-0.805-0.547-1.455-1.216-1.455H67.623L100.1,46.207H46.651v11.557h28.46l-29.809,38.66l-6.136,7.768
			c0,0,18.409,0.015,18.574,0.015h5.084c2.01-4.958,6.869-8.457,12.546-8.457c5.679,0,10.54,3.499,12.551,8.457H148.589z"/>
		<path fill="#4D4D5A" d="M85.807,109.436c0,5.766-4.674,10.437-10.438,10.437c-5.762,0-10.435-4.672-10.435-10.437
			c0-5.762,4.673-10.434,10.435-10.434C81.133,99.002,85.807,103.674,85.807,109.436"/>
	</g>
	<path fill="#4D4D5A" d="M309.648,96.59c-12.218,0-12.86-10.802-12.86-20.189c0-9.517,0.643-20.319,12.86-20.319
		c12.344,0,12.987,10.159,12.987,20.319C322.636,86.431,321.992,96.59,309.648,96.59 M283.671,135.298h13.117v-33.307
		c4.887,4.63,10.159,7.716,16.846,7.716c7.974,0,13.761-3.6,17.49-8.487c3.6-4.63,4.629-8.873,4.629-24.819
		c0-16.075-1.029-20.319-4.629-24.949c-3.729-4.886-9.517-8.487-17.49-8.487c-6.686,0-12.732,3.087-16.846,7.588v-6.817h-13.117
		V135.298z"/>
	<path fill="#4D4D5A" d="M400.379,98.391c-5.658,6.559-13.504,11.316-23.406,11.316c-15.045,0-29.576-9.515-29.576-33.306
		c0-23.919,14.531-33.436,29.576-33.436c9.902,0,17.748,4.759,23.406,11.317l-9.646,8.616c-3.214-3.986-7.844-6.816-13.244-6.816
		c-10.674,0-16.975,6.044-16.975,20.319c0,14.145,6.301,20.189,16.975,20.189c5.4,0,10.03-2.829,13.244-6.815L400.379,98.391z"/>
	<path fill="#4D4D5A" d="M445.713,86.045c0,10.16-3.729,11.317-14.66,11.317c-8.873,0-12.346-3.858-12.346-8.23
		c0-4.758,3.602-7.844,11.316-7.844h15.69V86.045z M445.713,108.936h13.117V64.441c0-16.074-11.059-21.476-27.135-21.476
		c-9.773,0-16.975,2.573-21.99,9.517l10.289,7.845c2.315-3.73,5.529-5.016,12.344-5.016c9.389,0,13.375,2.187,13.375,8.358v6.817
		H427.58c-14.018,0-21.219,8.873-21.219,19.289c0,11.316,8.488,19.932,23.02,19.932c8.873,0,13.375-2.057,16.074-6.558h0.258
		V108.936z"/>
	<path fill="#4D4D5A" d="M475.805,43.737h13.115v6.944h0.258c4.115-5.143,10.031-7.715,16.975-7.715
		c5.273,0,9.645,1.929,13.631,5.015l-9.516,11.317c-3.086-2.315-5.271-3.215-8.615-3.215c-6.43,0-12.732,4.115-12.732,13.631v39.222
		h-13.115V43.737z"/>
	<path fill="#4D4D5A" d="M517.209,104.757c0,2.532-2.051,4.582-4.582,4.582c-2.531,0-4.582-2.05-4.582-4.582
		c0-2.531,2.051-4.581,4.582-4.581C515.158,100.176,517.209,102.226,517.209,104.757 M507.084,104.757
		c0,3.055,2.486,5.543,5.543,5.543c3.055,0,5.543-2.488,5.543-5.543c0-3.054-2.488-5.543-5.543-5.543
		C509.57,99.214,507.084,101.703,507.084,104.757 M514.152,107.953h1.203l-1.824-2.813c0.933-0.128,1.641-0.608,1.641-1.755
		c0-1.258-0.736-1.823-2.248-1.823h-2.418v6.391h0.961v-2.786h1.019L514.152,107.953z M511.467,104.375v-2.021h1.301
		c0.99,0,1.443,0.296,1.443,1.018c0,0.707-0.453,1.003-1.443,1.003H511.467z"/>
	<polygon fill="#4D4D5A" points="187.471,98.52 220.135,55.311 189.271,55.311 189.271,43.737 236.081,43.737 236.081,54.154 
		203.417,96.59 236.081,96.59 236.081,108.936 187.471,108.936 	"/>
	<path fill="#4D4D5A" d="M251.195,43.737h13.117v65.199h-13.117V43.737z M251.195,17.375h13.117v13.117h-13.117V17.375z"/>
</g>
</svg>
